<svg id="SvgjsSvg1001" width="288" height="288" xmlns="http://www.w3.org/2000/svg" version="1.1" xmlns:xlink="http://www.w3.org/1999/xlink" xmlns:svgjs="http://svgjs.com/svgjs"><defs id="SvgjsDefs1002"></defs><g id="SvgjsG1008" transform="matrix(1,0,0,1,0,0)"><svg xmlns="http://www.w3.org/2000/svg" width="288" height="288" enable-background="new 0 0 511.94 511.94" viewBox="0 0 511.94 511.94"><path d="M255.97 136.501l-84.713 48.91 84.713 48.909 84.712-48.909zM270.97 260.3v97.818l84.712-48.909v-97.818zM240.97 260.3l-84.713-48.909v97.818l84.713 48.909z" fill="#ffffff" class="color000 svgShape"></path><path d="M370.496 335.297l-114.526 66.122-114.835-66.3-97.29 54.35 212.125 122.471 207.902-120.032zM270.97 110.521l114.712 66.229v132.672l95.714 58.028v-245.96l-210.426-121.49zM126.257 309.067v-132.317l114.713-66.229v-110.521l-210.427 121.49v241.046z" fill="#ffffff" class="color000 svgShape"></path></svg></g></svg>